<?xml version="1.0" encoding="UTF-8" standalone="no"?>
<!-- Generator: Adobe Illustrator 13.0.0, SVG Export Plug-In . SVG Version: 6.00 Build 14576)  -->

<svg
   xmlns:dc="http://purl.org/dc/elements/1.1/"
   xmlns:cc="http://creativecommons.org/ns#"
   xmlns:rdf="http://www.w3.org/1999/02/22-rdf-syntax-ns#"
   xmlns:svg="http://www.w3.org/2000/svg"
   xmlns="http://www.w3.org/2000/svg"
   xmlns:sodipodi="http://sodipodi.sourceforge.net/DTD/sodipodi-0.dtd"
   xmlns:inkscape="http://www.inkscape.org/namespaces/inkscape"
   version="1.0"
   id="Layer_1"
   x="0px"
   y="0px"
   width="720"
   height="303.61719"
   viewBox="0 0 720 303.61719"
   enable-background="new 0 0 800 600"
   xml:space="preserve"
   inkscape:version="0.91 r13725"
   sodipodi:docname="nand_flash.svg"><metadata
     id="metadata319"><rdf:RDF><cc:Work
         rdf:about=""><dc:format>image/svg+xml</dc:format><dc:type
           rdf:resource="http://purl.org/dc/dcmitype/StillImage" /><dc:title></dc:title></cc:Work></rdf:RDF></metadata><defs
     id="defs317" /><sodipodi:namedview
     pagecolor="#ffffff"
     bordercolor="#666666"
     borderopacity="1"
     objecttolerance="10"
     gridtolerance="10"
     guidetolerance="10"
     inkscape:pageopacity="0"
     inkscape:pageshadow="2"
     inkscape:window-width="1885"
     inkscape:window-height="1245"
     id="namedview315"
     showgrid="false"
     fit-margin-top="0"
     fit-margin-left="0"
     fit-margin-right="0"
     fit-margin-bottom="0"
     inkscape:zoom="0.3875"
     inkscape:cx="366"
     inkscape:cy="122.5"
     inkscape:window-x="0"
     inkscape:window-y="0"
     inkscape:window-maximized="0"
     inkscape:current-layer="Layer_1" /><rect
     x="14"
     y="257.11719"
     width="704"
     height="46"
     id="rect3"
     style="fill:#662d91;stroke:#000000" /><path
     d="m 94,257.11719 0,8 c 0,0 0,8 8,8 8,0 16,0 16,0 0,0 8,0 8,-8 0,-8 0,-8 0,-8"
     id="path5"
     inkscape:connector-curvature="0"
     style="fill:#00ffff;stroke:#000000" /><path
     d="m 30,257.11719 0,8 c 0,0 0,8 8,8 8,0 16,0 16,0 0,0 8,0 8,-8 0,-8 0,-8 0,-8"
     id="path7"
     inkscape:connector-curvature="0"
     style="fill:#00ffff;stroke:#000000" /><path
     d="m 158,257.11719 0,8 c 0,0 0,8 8,8 8,0 16,0 16,0 0,0 8,0 8,-8 0,-8 0,-8 0,-8"
     id="path9"
     inkscape:connector-curvature="0"
     style="fill:#00ffff;stroke:#000000" /><path
     d="m 222,257.11719 0,8 c 0,0 0,8 8,8 8,0 16,0 16,0 0,0 8,0 8,-8 0,-8 0,-8 0,-8"
     id="path11"
     inkscape:connector-curvature="0"
     style="fill:#00ffff;stroke:#000000" /><path
     d="m 286,257.11719 0,8 c 0,0 0,8 8,8 8,0 16,0 16,0 0,0 8,0 8,-8 0,-8 0,-8 0,-8"
     id="path13"
     inkscape:connector-curvature="0"
     style="fill:#00ffff;stroke:#000000" /><path
     d="m 350,257.11719 0,8 c 0,0 0,8 8,8 8,0 16,0 16,0 0,0 8,0 8,-8 0,-8 0,-8 0,-8"
     id="path15"
     inkscape:connector-curvature="0"
     style="fill:#00ffff;stroke:#000000" /><path
     d="m 414,257.11719 0,8 c 0,0 0,8 8,8 8,0 16,0 16,0 0,0 8,0 8,-8 0,-8 0,-8 0,-8"
     id="path17"
     inkscape:connector-curvature="0"
     style="fill:#00ffff;stroke:#000000" /><path
     d="m 478,257.11719 0,8 c 0,0 0,8 8,8 8,0 16,0 16,0 0,0 8,0 8,-8 0,-8 0,-8 0,-8"
     id="path19"
     inkscape:connector-curvature="0"
     style="fill:#00ffff;stroke:#000000" /><path
     d="m 542,257.11719 0,8 c 0,0 0,8 8,8 8,0 16,0 16,0 0,0 8,0 8,-8 0,-8 0,-8 0,-8"
     id="path21"
     inkscape:connector-curvature="0"
     style="fill:#00ffff;stroke:#000000" /><path
     d="m 606,257.11719 0,8 c 0,0 0,8 8,8 8,0 16,0 16,0 0,0 8,0 8,-8 0,-8 0,-8 0,-8"
     id="path23"
     inkscape:connector-curvature="0"
     style="fill:#00ffff;stroke:#000000" /><path
     d="m 670,257.11719 0,8 c 0,0 0,8 8,8 8,0 16,0 16,0 0,0 8,0 8,-8 0,-8 0,-8 0,-8"
     id="path25"
     inkscape:connector-curvature="0"
     style="fill:#00ffff;stroke:#000000" /><rect
     x="62"
     y="241.11719"
     width="32"
     height="12"
     id="rect27"
     style="fill:#b3b3b3;stroke:#000000" /><rect
     x="122"
     y="247.11719"
     width="40"
     height="8"
     id="rect29"
     style="fill:#b3b3b3;stroke:#000000" /><rect
     x="122"
     y="237.11719"
     width="40"
     height="8"
     id="rect31"
     style="fill:#b3b3b3;stroke:#000000" /><rect
     x="186"
     y="247.11719"
     width="40"
     height="8"
     id="rect33"
     style="fill:#b3b3b3;stroke:#000000" /><rect
     x="186"
     y="237.11719"
     width="40"
     height="8"
     id="rect35"
     style="fill:#b3b3b3;stroke:#000000" /><rect
     x="250"
     y="247.11719"
     width="40"
     height="8"
     id="rect37"
     style="fill:#b3b3b3;stroke:#000000" /><rect
     x="250"
     y="237.11719"
     width="40"
     height="8"
     id="rect39"
     style="fill:#b3b3b3;stroke:#000000" /><rect
     x="314"
     y="247.11719"
     width="40"
     height="8"
     id="rect41"
     style="fill:#b3b3b3;stroke:#000000" /><rect
     x="314"
     y="237.11719"
     width="40"
     height="8"
     id="rect43"
     style="fill:#b3b3b3;stroke:#000000" /><rect
     x="378"
     y="247.11719"
     width="40"
     height="8"
     id="rect45"
     style="fill:#b3b3b3;stroke:#000000" /><rect
     x="378"
     y="237.11719"
     width="40"
     height="8"
     id="rect47"
     style="fill:#b3b3b3;stroke:#000000" /><rect
     x="442"
     y="247.11719"
     width="40"
     height="8"
     id="rect49"
     style="fill:#b3b3b3;stroke:#000000" /><rect
     x="442"
     y="237.11719"
     width="40"
     height="8"
     id="rect51"
     style="fill:#b3b3b3;stroke:#000000" /><rect
     x="506"
     y="247.11719"
     width="40"
     height="8"
     id="rect53"
     style="fill:#b3b3b3;stroke:#000000" /><rect
     x="506"
     y="237.11719"
     width="40"
     height="8"
     id="rect55"
     style="fill:#b3b3b3;stroke:#000000" /><rect
     x="570"
     y="247.11719"
     width="40"
     height="8"
     id="rect57"
     style="fill:#b3b3b3;stroke:#000000" /><rect
     x="570"
     y="237.11719"
     width="40"
     height="8"
     id="rect59"
     style="fill:#b3b3b3;stroke:#000000" /><rect
     x="638"
     y="241.11719"
     width="32"
     height="12"
     id="rect61"
     style="fill:#b3b3b3;stroke:#000000" /><rect
     x="36"
     y="225.11719"
     width="18"
     height="32"
     id="rect63"
     style="fill:#f7931e;stroke:#000000" /><rect
     x="678"
     y="225.11719"
     width="16"
     height="32"
     id="rect65"
     style="fill:#f7931e;stroke:#000000" /><line
     x1="0"
     y1="17.117188"
     x2="720"
     y2="17.117188"
     id="line67"
     style="fill:none;stroke:#000000;stroke-width:2" /><line
     x1="686"
     y1="17.117188"
     x2="686"
     y2="125.11719"
     id="line69"
     style="fill:none;stroke:#000000;stroke-width:2" /><line
     x1="686"
     y1="125.11719"
     x2="670"
     y2="125.11719"
     id="line71"
     style="fill:none;stroke:#000000;stroke-width:2" /><g
     id="g73"
     transform="translate(-34,-118.88281)"><line
       x1="704"
       y1="244"
       x2="704"
       y2="216"
       id="line75"
       style="fill:none;stroke:#000000;stroke-width:2" /><line
       x1="672"
       y1="216"
       x2="704"
       y2="216"
       id="line77"
       style="fill:none;stroke:#000000;stroke-width:2" /><line
       x1="672"
       y1="216"
       x2="672"
       y2="244"
       id="line79"
       style="fill:none;stroke:#000000;stroke-width:2" /><line
       x1="672"
       y1="244"
       x2="640"
       y2="244"
       id="line81"
       style="fill:none;stroke:#000000;stroke-width:2" /><line
       x1="640"
       y1="244"
       x2="640"
       y2="216"
       id="line83"
       style="fill:none;stroke:#000000;stroke-width:2" /><line
       x1="608"
       y1="216"
       x2="640"
       y2="216"
       id="line85"
       style="fill:none;stroke:#000000;stroke-width:2" /><line
       x1="608"
       y1="216"
       x2="608"
       y2="244"
       id="line87"
       style="fill:none;stroke:#000000;stroke-width:2" /><line
       x1="608"
       y1="244"
       x2="576"
       y2="244"
       id="line89"
       style="fill:none;stroke:#000000;stroke-width:2" /></g><g
     id="g91"
     transform="translate(-34,-118.88281)"><line
       x1="576"
       y1="244"
       x2="576"
       y2="216"
       id="line93"
       style="fill:none;stroke:#000000;stroke-width:2" /><line
       x1="544"
       y1="216"
       x2="576"
       y2="216"
       id="line95"
       style="fill:none;stroke:#000000;stroke-width:2" /><line
       x1="544"
       y1="216"
       x2="544"
       y2="244"
       id="line97"
       style="fill:none;stroke:#000000;stroke-width:2" /><line
       x1="544"
       y1="244"
       x2="512"
       y2="244"
       id="line99"
       style="fill:none;stroke:#000000;stroke-width:2" /><line
       x1="512"
       y1="244"
       x2="512"
       y2="216"
       id="line101"
       style="fill:none;stroke:#000000;stroke-width:2" /><line
       x1="480"
       y1="216"
       x2="512"
       y2="216"
       id="line103"
       style="fill:none;stroke:#000000;stroke-width:2" /><line
       x1="480"
       y1="216"
       x2="480"
       y2="244"
       id="line105"
       style="fill:none;stroke:#000000;stroke-width:2" /><line
       x1="480"
       y1="244"
       x2="448"
       y2="244"
       id="line107"
       style="fill:none;stroke:#000000;stroke-width:2" /></g><g
     id="g109"
     transform="translate(-34,-118.88281)"><line
       x1="448"
       y1="244"
       x2="448"
       y2="216"
       id="line111"
       style="fill:none;stroke:#000000;stroke-width:2" /><line
       x1="416"
       y1="216"
       x2="448"
       y2="216"
       id="line113"
       style="fill:none;stroke:#000000;stroke-width:2" /><line
       x1="416"
       y1="216"
       x2="416"
       y2="244"
       id="line115"
       style="fill:none;stroke:#000000;stroke-width:2" /><line
       x1="416"
       y1="244"
       x2="384"
       y2="244"
       id="line117"
       style="fill:none;stroke:#000000;stroke-width:2" /><line
       x1="384"
       y1="244"
       x2="384"
       y2="216"
       id="line119"
       style="fill:none;stroke:#000000;stroke-width:2" /><line
       x1="352"
       y1="216"
       x2="384"
       y2="216"
       id="line121"
       style="fill:none;stroke:#000000;stroke-width:2" /><line
       x1="352"
       y1="216"
       x2="352"
       y2="244"
       id="line123"
       style="fill:none;stroke:#000000;stroke-width:2" /><line
       x1="352"
       y1="244"
       x2="320"
       y2="244"
       id="line125"
       style="fill:none;stroke:#000000;stroke-width:2" /></g><g
     id="g127"
     transform="translate(-34,-118.88281)"><line
       x1="320"
       y1="244"
       x2="320"
       y2="216"
       id="line129"
       style="fill:none;stroke:#000000;stroke-width:2" /><line
       x1="288"
       y1="216"
       x2="320"
       y2="216"
       id="line131"
       style="fill:none;stroke:#000000;stroke-width:2" /><line
       x1="288"
       y1="216"
       x2="288"
       y2="244"
       id="line133"
       style="fill:none;stroke:#000000;stroke-width:2" /><line
       x1="288"
       y1="244"
       x2="256"
       y2="244"
       id="line135"
       style="fill:none;stroke:#000000;stroke-width:2" /><line
       x1="256"
       y1="244"
       x2="256"
       y2="216"
       id="line137"
       style="fill:none;stroke:#000000;stroke-width:2" /><line
       x1="224"
       y1="216"
       x2="256"
       y2="216"
       id="line139"
       style="fill:none;stroke:#000000;stroke-width:2" /><line
       x1="224"
       y1="216"
       x2="224"
       y2="244"
       id="line141"
       style="fill:none;stroke:#000000;stroke-width:2" /><line
       x1="224"
       y1="244"
       x2="192"
       y2="244"
       id="line143"
       style="fill:none;stroke:#000000;stroke-width:2" /></g><line
     x1="158"
     y1="125.11719"
     x2="158"
     y2="97.117188"
     id="line145"
     style="fill:none;stroke:#000000;stroke-width:2" /><line
     x1="126"
     y1="97.117188"
     x2="158"
     y2="97.117188"
     id="line147"
     style="fill:none;stroke:#000000;stroke-width:2" /><line
     x1="126"
     y1="97.117188"
     x2="126"
     y2="125.11719"
     id="line149"
     style="fill:none;stroke:#000000;stroke-width:2" /><line
     x1="126"
     y1="125.11719"
     x2="94"
     y2="125.11719"
     id="line151"
     style="fill:none;stroke:#000000;stroke-width:2" /><line
     x1="94"
     y1="125.11719"
     x2="94"
     y2="97.117188"
     id="line153"
     style="fill:none;stroke:#000000;stroke-width:2" /><line
     x1="62"
     y1="97.117188"
     x2="94"
     y2="97.117188"
     id="line155"
     style="fill:none;stroke:#000000;stroke-width:2" /><line
     x1="62"
     y1="97.117188"
     x2="62"
     y2="125.11719"
     id="line157"
     style="fill:none;stroke:#000000;stroke-width:2" /><line
     x1="62"
     y1="125.11719"
     x2="46"
     y2="125.11719"
     id="line159"
     style="fill:none;stroke:#000000;stroke-width:2" /><line
     x1="46"
     y1="145.11719"
     x2="46"
     y2="125.11719"
     id="line161"
     style="fill:none;stroke:#000000;stroke-width:2" /><line
     x1="62"
     y1="89.117188"
     x2="94"
     y2="89.117188"
     id="line163"
     style="fill:none;stroke:#000000;stroke-width:2" /><line
     x1="126"
     y1="91.117188"
     x2="158"
     y2="91.117188"
     id="line165"
     style="fill:none;stroke:#000000;stroke-width:2" /><line
     x1="126"
     y1="87.117188"
     x2="158"
     y2="87.117188"
     id="line167"
     style="fill:none;stroke:#000000;stroke-width:2" /><line
     x1="78"
     y1="73.117188"
     x2="78"
     y2="89.117188"
     id="line169"
     style="fill:none;stroke:#000000;stroke-width:2" /><line
     x1="142"
     y1="73.117188"
     x2="142"
     y2="87.117188"
     id="line171"
     style="fill:none;stroke:#000000;stroke-width:2" /><line
     x1="190"
     y1="91.117188"
     x2="222"
     y2="91.117188"
     id="line173"
     style="fill:none;stroke:#000000;stroke-width:2" /><line
     x1="190"
     y1="87.117188"
     x2="222"
     y2="87.117188"
     id="line175"
     style="fill:none;stroke:#000000;stroke-width:2" /><line
     x1="206"
     y1="73.117188"
     x2="206"
     y2="87.117188"
     id="line177"
     style="fill:none;stroke:#000000;stroke-width:2" /><line
     x1="254"
     y1="91.117188"
     x2="286"
     y2="91.117188"
     id="line179"
     style="fill:none;stroke:#000000;stroke-width:2" /><line
     x1="254"
     y1="87.117188"
     x2="286"
     y2="87.117188"
     id="line181"
     style="fill:none;stroke:#000000;stroke-width:2" /><line
     x1="270"
     y1="73.117188"
     x2="270"
     y2="87.117188"
     id="line183"
     style="fill:none;stroke:#000000;stroke-width:2" /><line
     x1="318"
     y1="91.117188"
     x2="350"
     y2="91.117188"
     id="line185"
     style="fill:none;stroke:#000000;stroke-width:2" /><line
     x1="318"
     y1="87.117188"
     x2="350"
     y2="87.117188"
     id="line187"
     style="fill:none;stroke:#000000;stroke-width:2" /><line
     x1="334"
     y1="73.117188"
     x2="334"
     y2="87.117188"
     id="line189"
     style="fill:none;stroke:#000000;stroke-width:2" /><line
     x1="382"
     y1="91.117188"
     x2="414"
     y2="91.117188"
     id="line191"
     style="fill:none;stroke:#000000;stroke-width:2" /><line
     x1="382"
     y1="87.117188"
     x2="414"
     y2="87.117188"
     id="line193"
     style="fill:none;stroke:#000000;stroke-width:2" /><line
     x1="398"
     y1="73.117188"
     x2="398"
     y2="87.117188"
     id="line195"
     style="fill:none;stroke:#000000;stroke-width:2" /><line
     x1="446"
     y1="91.117188"
     x2="478"
     y2="91.117188"
     id="line197"
     style="fill:none;stroke:#000000;stroke-width:2" /><line
     x1="446"
     y1="87.117188"
     x2="478"
     y2="87.117188"
     id="line199"
     style="fill:none;stroke:#000000;stroke-width:2" /><line
     x1="462"
     y1="73.117188"
     x2="462"
     y2="87.117188"
     id="line201"
     style="fill:none;stroke:#000000;stroke-width:2" /><line
     x1="510"
     y1="91.117188"
     x2="542"
     y2="91.117188"
     id="line203"
     style="fill:none;stroke:#000000;stroke-width:2" /><line
     x1="510"
     y1="87.117188"
     x2="542"
     y2="87.117188"
     id="line205"
     style="fill:none;stroke:#000000;stroke-width:2" /><line
     x1="526"
     y1="73.117188"
     x2="526"
     y2="87.117188"
     id="line207"
     style="fill:none;stroke:#000000;stroke-width:2" /><line
     x1="574"
     y1="91.117188"
     x2="606"
     y2="91.117188"
     id="line209"
     style="fill:none;stroke:#000000;stroke-width:2" /><line
     x1="574"
     y1="87.117188"
     x2="606"
     y2="87.117188"
     id="line211"
     style="fill:none;stroke:#000000;stroke-width:2" /><line
     x1="590"
     y1="73.117188"
     x2="590"
     y2="87.117188"
     id="line213"
     style="fill:none;stroke:#000000;stroke-width:2" /><line
     x1="638"
     y1="89.117188"
     x2="670"
     y2="89.117188"
     id="line215"
     style="fill:none;stroke:#000000;stroke-width:2" /><line
     x1="654"
     y1="73.117188"
     x2="654"
     y2="89.117188"
     id="line217"
     style="fill:none;stroke:#000000;stroke-width:2" /><line
     x1="38"
     y1="145.11719"
     x2="54"
     y2="145.11719"
     id="line219"
     style="fill:none;stroke:#000000;stroke-width:2" /><line
     x1="40"
     y1="149.11719"
     x2="52"
     y2="149.11719"
     id="line221"
     style="fill:none;stroke:#000000;stroke-width:2" /><line
     x1="44"
     y1="153.11719"
     x2="48"
     y2="153.11719"
     id="line223"
     style="fill:none;stroke:#000000;stroke-width:2" /><text
     id="text225"
     x="127.665"
     y="53.117188"><tspan
       x="127.665"
       y="53.117188"
       font-size="12"
       id="tspan227"
       style="font-size:12px;font-family:ArialMT">Word</tspan><tspan
       x="125.652"
       y="67.517189"
       font-size="12"
       id="tspan229"
       style="font-size:12px;font-family:ArialMT">line 0</tspan></text>
<text
     id="text231"
     x="191.66499"
     y="53.117188"><tspan
       x="191.66499"
       y="53.117188"
       font-size="12"
       id="tspan233"
       style="font-size:12px;font-family:ArialMT">Word</tspan><tspan
       x="189.65199"
       y="67.517189"
       font-size="12"
       id="tspan235"
       style="font-size:12px;font-family:ArialMT">line 1</tspan></text>
<text
     id="text237"
     x="253.66499"
     y="53.117188"><tspan
       x="253.66499"
       y="53.117188"
       font-size="12"
       id="tspan239"
       style="font-size:12px;font-family:ArialMT">Word</tspan><tspan
       x="251.65199"
       y="67.517189"
       font-size="12"
       id="tspan241"
       style="font-size:12px;font-family:ArialMT">line 2</tspan></text>
<text
     id="text243"
     x="317.66501"
     y="53.117188"><tspan
       x="317.66501"
       y="53.117188"
       font-size="12"
       id="tspan245"
       style="font-size:12px;font-family:ArialMT">Word</tspan><tspan
       x="315.65201"
       y="67.517189"
       font-size="12"
       id="tspan247"
       style="font-size:12px;font-family:ArialMT">line 3</tspan></text>
<text
     id="text249"
     x="381.66501"
     y="53.117188"><tspan
       x="381.66501"
       y="53.117188"
       font-size="12"
       id="tspan251"
       style="font-size:12px;font-family:ArialMT">Word</tspan><tspan
       x="379.65201"
       y="67.517189"
       font-size="12"
       id="tspan253"
       style="font-size:12px;font-family:ArialMT">line 4</tspan></text>
<text
     id="text255"
     x="445.66501"
     y="53.117188"><tspan
       x="445.66501"
       y="53.117188"
       font-size="12"
       id="tspan257"
       style="font-size:12px;font-family:ArialMT">Word</tspan><tspan
       x="443.65201"
       y="67.517189"
       font-size="12"
       id="tspan259"
       style="font-size:12px;font-family:ArialMT">line 5</tspan></text>
<text
     id="text261"
     x="507.66501"
     y="53.117188"><tspan
       x="507.66501"
       y="53.117188"
       font-size="12"
       id="tspan263"
       style="font-size:12px;font-family:ArialMT">Word</tspan><tspan
       x="505.65201"
       y="67.517189"
       font-size="12"
       id="tspan265"
       style="font-size:12px;font-family:ArialMT">line 6</tspan></text>
<text
     id="text267"
     x="571.66498"
     y="53.117188"><tspan
       x="571.66498"
       y="53.117188"
       font-size="12"
       id="tspan269"
       style="font-size:12px;font-family:ArialMT">Word</tspan><tspan
       x="569.65198"
       y="67.517189"
       font-size="12"
       id="tspan271"
       style="font-size:12px;font-family:ArialMT">line 7</tspan></text>
<text
     id="text273"
     x="633.9873"
     y="39.117188"><tspan
       x="633.9873"
       y="39.117188"
       font-size="12"
       id="tspan275"
       style="font-size:12px;font-family:ArialMT">Bit line</tspan><tspan
       x="637.32428"
       y="53.517189"
       font-size="12"
       id="tspan277"
       style="font-size:12px;font-family:ArialMT">select</tspan><tspan
       x="627.32831"
       y="67.917191"
       font-size="12"
       id="tspan279"
       style="font-size:12px;font-family:ArialMT">transistor</tspan></text>
<text
     id="text281"
     x="57.987301"
     y="39.117188"><tspan
       x="57.987301"
       y="39.117188"
       font-size="12"
       id="tspan283"
       style="font-size:12px;font-family:ArialMT">Ground</tspan><tspan
       x="61.324299"
       y="53.517189"
       font-size="12"
       id="tspan285"
       style="font-size:12px;font-family:ArialMT">select</tspan><tspan
       x="51.3283"
       y="67.917191"
       font-size="12"
       id="tspan287"
       style="font-size:12px;font-family:ArialMT">transistor</tspan></text>
<text
     font-size="12"
     id="text289"
     style="font-size:12px;font-family:ArialMT"
     x="649.9873"
     y="9.1171875">Bit line</text>
<text
     font-size="12"
     id="text291"
     style="font-size:12px;font-family:ArialMT"
     x="41.667"
     y="269.11719">N</text>
<text
     font-size="12"
     id="text293"
     style="font-size:12px;font-family:ArialMT"
     x="105.667"
     y="269.11719">N</text>
<text
     font-size="12"
     id="text295"
     style="font-size:12px;font-family:ArialMT"
     x="169.66701"
     y="269.11719">N</text>
<text
     font-size="12"
     id="text297"
     style="font-size:12px;font-family:ArialMT"
     x="233.66701"
     y="269.11719">N</text>
<text
     font-size="12"
     id="text299"
     style="font-size:12px;font-family:ArialMT"
     x="297.66699"
     y="269.11719">N</text>
<text
     font-size="12"
     id="text301"
     style="font-size:12px;font-family:ArialMT"
     x="361.66699"
     y="269.11719">N</text>
<text
     font-size="12"
     id="text303"
     style="font-size:12px;font-family:ArialMT"
     x="425.66699"
     y="269.11719">N</text>
<text
     font-size="12"
     id="text305"
     style="font-size:12px;font-family:ArialMT"
     x="489.66699"
     y="269.11719">N</text>
<text
     font-size="12"
     id="text307"
     style="font-size:12px;font-family:ArialMT"
     x="553.66699"
     y="269.11719">N</text>
<text
     font-size="12"
     id="text309"
     style="font-size:12px;font-family:ArialMT"
     x="617.66699"
     y="269.11719">N</text>
<text
     font-size="12"
     id="text311"
     style="font-size:12px;font-family:ArialMT"
     x="681.66699"
     y="269.11719">N</text>
<text
     font-size="12"
     id="text313"
     style="font-size:12px;font-family:ArialMT"
     x="359.99799"
     y="291.11719">P</text>
</svg>