<?xml version="1.0" encoding="UTF-8" standalone="no"?>
<!DOCTYPE svg PUBLIC "-//W3C//DTD SVG 1.1//EN"
 "http://www.w3.org/Graphics/SVG/1.1/DTD/svg11.dtd">
<!-- Generated by graphviz version 6.0.1 (20220911.1526)
 -->
<!-- Title: G Pages: 1 -->
<svg width="522pt" height="188pt"
 viewBox="0.00 0.00 522.24 188.00" xmlns="http://www.w3.org/2000/svg" xmlns:xlink="http://www.w3.org/1999/xlink">
<g id="graph0" class="graph" transform="scale(1 1) rotate(0) translate(4 184)">
<title>G</title>
<polygon fill="white" stroke="none" points="-4,4 -4,-184 518.24,-184 518.24,4 -4,4"/>
<!-- RAID -->
<g id="node1" class="node">
<title>RAID</title>
<ellipse fill="none" stroke="black" cx="205.85" cy="-162" rx="32.49" ry="18"/>
<text text-anchor="middle" x="205.85" y="-158.3" font-family="Times,serif" font-size="14.00">RAID</text>
</g>
<!-- Basic -->
<g id="node2" class="node">
<title>Basic</title>
<ellipse fill="none" stroke="black" cx="115.85" cy="-90" rx="30.59" ry="18"/>
<text text-anchor="middle" x="115.85" y="-86.3" font-family="Times,serif" font-size="14.00">Basic</text>
</g>
<!-- RAID&#45;&gt;Basic -->
<g id="edge1" class="edge">
<title>RAID&#45;&gt;Basic</title>
<path fill="none" stroke="black" d="M187.63,-146.83C174.5,-136.62 156.57,-122.67 141.91,-111.27"/>
<polygon fill="black" stroke="black" points="143.77,-108.28 133.73,-104.91 139.47,-113.81 143.77,-108.28"/>
</g>
<!-- Parity -->
<g id="node3" class="node">
<title>Parity</title>
<ellipse fill="none" stroke="black" cx="295.85" cy="-90" rx="31.7" ry="18"/>
<text text-anchor="middle" x="295.85" y="-86.3" font-family="Times,serif" font-size="14.00">Parity</text>
</g>
<!-- RAID&#45;&gt;Parity -->
<g id="edge2" class="edge">
<title>RAID&#45;&gt;Parity</title>
<path fill="none" stroke="black" d="M224.06,-146.83C237.2,-136.62 255.13,-122.67 269.78,-111.27"/>
<polygon fill="black" stroke="black" points="272.22,-113.81 277.97,-104.91 267.93,-108.28 272.22,-113.81"/>
</g>
<!-- Stripe -->
<g id="node4" class="node">
<title>Stripe</title>
<ellipse fill="none" stroke="black" cx="31.85" cy="-18" rx="31.7" ry="18"/>
<text text-anchor="middle" x="31.85" y="-14.3" font-family="Times,serif" font-size="14.00">Stripe</text>
</g>
<!-- Basic&#45;&gt;Stripe -->
<g id="edge3" class="edge">
<title>Basic&#45;&gt;Stripe</title>
<path fill="none" stroke="black" d="M98.85,-74.83C86.86,-64.84 70.6,-51.29 57.1,-40.04"/>
<polygon fill="black" stroke="black" points="59.03,-37.1 49.11,-33.38 54.55,-42.48 59.03,-37.1"/>
</g>
<!-- Mirror -->
<g id="node5" class="node">
<title>Mirror</title>
<ellipse fill="none" stroke="black" cx="115.85" cy="-18" rx="34.39" ry="18"/>
<text text-anchor="middle" x="115.85" y="-14.3" font-family="Times,serif" font-size="14.00">Mirror</text>
</g>
<!-- Basic&#45;&gt;Mirror -->
<g id="edge4" class="edge">
<title>Basic&#45;&gt;Mirror</title>
<path fill="none" stroke="black" d="M115.85,-71.7C115.85,-63.98 115.85,-54.71 115.85,-46.11"/>
<polygon fill="black" stroke="black" points="119.35,-46.1 115.85,-36.1 112.35,-46.1 119.35,-46.1"/>
</g>
<!-- RAID3 -->
<g id="node6" class="node">
<title>RAID3</title>
<ellipse fill="none" stroke="black" cx="204.85" cy="-18" rx="36.29" ry="18"/>
<text text-anchor="middle" x="204.85" y="-14.3" font-family="Times,serif" font-size="14.00">RAID3</text>
</g>
<!-- Parity&#45;&gt;RAID3 -->
<g id="edge5" class="edge">
<title>Parity&#45;&gt;RAID3</title>
<path fill="none" stroke="black" d="M277.43,-74.83C264.41,-64.82 246.73,-51.22 232.08,-39.95"/>
<polygon fill="black" stroke="black" points="233.92,-36.95 223.86,-33.63 229.65,-42.5 233.92,-36.95"/>
</g>
<!-- RAID4 -->
<g id="node7" class="node">
<title>RAID4</title>
<ellipse fill="none" stroke="black" cx="295.85" cy="-18" rx="36.29" ry="18"/>
<text text-anchor="middle" x="295.85" y="-14.3" font-family="Times,serif" font-size="14.00">RAID4</text>
</g>
<!-- Parity&#45;&gt;RAID4 -->
<g id="edge6" class="edge">
<title>Parity&#45;&gt;RAID4</title>
<path fill="none" stroke="black" d="M295.85,-71.7C295.85,-63.98 295.85,-54.71 295.85,-46.11"/>
<polygon fill="black" stroke="black" points="299.35,-46.1 295.85,-36.1 292.35,-46.1 299.35,-46.1"/>
</g>
<!-- RAID5 -->
<g id="node8" class="node">
<title>RAID5</title>
<ellipse fill="none" stroke="black" cx="386.85" cy="-18" rx="36.29" ry="18"/>
<text text-anchor="middle" x="386.85" y="-14.3" font-family="Times,serif" font-size="14.00">RAID5</text>
</g>
<!-- Parity&#45;&gt;RAID5 -->
<g id="edge7" class="edge">
<title>Parity&#45;&gt;RAID5</title>
<path fill="none" stroke="black" d="M314.26,-74.83C327.29,-64.82 344.97,-51.22 359.62,-39.95"/>
<polygon fill="black" stroke="black" points="362.04,-42.5 367.83,-33.63 357.77,-36.95 362.04,-42.5"/>
</g>
<!-- RAID6 -->
<g id="node9" class="node">
<title>RAID6</title>
<ellipse fill="none" stroke="black" cx="477.85" cy="-18" rx="36.29" ry="18"/>
<text text-anchor="middle" x="477.85" y="-14.3" font-family="Times,serif" font-size="14.00">RAID6</text>
</g>
<!-- Parity&#45;&gt;RAID6 -->
<g id="edge8" class="edge">
<title>Parity&#45;&gt;RAID6</title>
<path fill="none" stroke="black" d="M321.54,-79.12C352.53,-67.2 404.87,-47.07 440.37,-33.42"/>
<polygon fill="black" stroke="black" points="441.82,-36.61 449.9,-29.75 439.31,-30.07 441.82,-36.61"/>
</g>
</g>
</svg>
