<?xml version="1.0" encoding="utf-8"?>
<!-- Generator: Adobe Illustrator 15.1.0, SVG Export Plug-In . SVG Version: 6.00 Build 0)  -->
<!DOCTYPE svg PUBLIC "-//W3C//DTD SVG 1.1//EN" "http://www.w3.org/Graphics/SVG/1.1/DTD/svg11.dtd">
<svg version="1.1" id="Layer_1" xmlns="http://www.w3.org/2000/svg" xmlns:xlink="http://www.w3.org/1999/xlink" x="0px" y="0px"
	 width="548px" height="396.5px" viewBox="0 0 548 396.5" enable-background="new 0 0 548 396.5" xml:space="preserve">
<rect x="67.333" y="8.307" fill="#C0BEBE" stroke="#666666" stroke-width="1.5" stroke-miterlimit="10" width="41.333" height="41.333"/>
<rect x="117.083" y="8.307" fill="#C0BEBE" stroke="#666666" stroke-width="1.5" stroke-miterlimit="10" width="41.333" height="41.333"/>
<rect x="166.771" y="8.307" fill="#C0BEBE" stroke="#666666" stroke-width="1.5" stroke-miterlimit="10" width="41.333" height="41.333"/>
<rect x="216.458" y="8.307" fill="#C0BEBE" stroke="#666666" stroke-width="1.5" stroke-miterlimit="10" width="41.333" height="41.333"/>
<rect x="266.146" y="8.307" fill="#C0BEBE" stroke="#666666" stroke-width="1.5" stroke-miterlimit="10" width="41.332" height="41.333"/>
<rect x="67.333" y="59.84" fill="#8EED8E" stroke="#174E18" stroke-width="1.5" stroke-miterlimit="10" width="41.333" height="41.333"/>
<rect x="117.083" y="59.84" fill="#8EED8E" stroke="#174E18" stroke-width="1.5" stroke-miterlimit="10" width="41.333" height="41.333"/>
<rect x="166.771" y="59.84" fill="#8EED8E" stroke="#174E18" stroke-width="1.5" stroke-miterlimit="10" width="41.333" height="41.333"/>
<rect x="216.458" y="59.84" fill="#8EED8E" stroke="#174E18" stroke-width="1.5" stroke-miterlimit="10" width="41.333" height="41.333"/>
<rect x="266.146" y="59.84" fill="#8EED8E" stroke="#174E18" stroke-width="1.5" stroke-miterlimit="10" width="41.332" height="41.333"/>
<rect x="67.333" y="111.864" fill="#CCCCFF" stroke="#3333CC" stroke-width="1.5" stroke-miterlimit="10" width="240.145" height="41.333"/>
<rect x="67.333" y="343.535" fill="#F9C358" stroke="#CC6600" stroke-width="1.5" stroke-miterlimit="10" width="240.145" height="41.332"/>
<rect x="67.333" y="291.535" fill="#F9C358" stroke="#CC6600" stroke-width="1.5" stroke-miterlimit="10" width="240.145" height="41.332"/>
<rect x="67.333" y="239.535" fill="#6699CC" stroke="#003366" stroke-width="1.5" stroke-miterlimit="10" width="240.145" height="41.332"/>
<rect x="67.333" y="163.333" fill="#99FFFF" stroke="#009999" stroke-width="1.5" stroke-miterlimit="10" width="240.145" height="22"/>
<rect x="67.333" y="185.333" fill="#99FFFF" stroke="#009999" stroke-width="1.5" stroke-miterlimit="10" width="240.145" height="22"/>
<rect x="67.333" y="207.333" fill="#99FFFF" stroke="#009999" stroke-width="1.5" stroke-miterlimit="10" width="240.145" height="22"/>
<text transform="matrix(1 0 0 1 79.1235 31.6406)" fill="#231F20" font-family="'ArialMT'" font-size="10">VIA</text>
<text transform="matrix(1 0 0 1 125.1235 31.6406)" fill="#231F20" font-family="'ArialMT'" font-size="10">SCSI</text>
<text transform="matrix(1 0 0 1 176.0625 25.6406)"><tspan x="0" y="0" fill="#231F20" font-family="'ArialMT'" font-size="10">IPv4,</tspan><tspan x="1.389" y="12" fill="#231F20" font-family="'ArialMT'" font-size="10">IPv6</tspan></text>
<text transform="matrix(1 0 0 1 219.7905 31.6406)" fill="#231F20" font-family="'ArialMT'" font-size="10">SBCCS</text>
<text transform="matrix(1 0 0 1 270.4565 31.9072)" fill="#231F20" font-family="'ArialMT'" font-size="11">Others</text>
<text transform="matrix(1 0 0 1 73.79 83.4409)" fill="#231F20" font-family="'ArialMT'" font-size="11">FC-VI</text>
<text transform="matrix(1 0 0 1 122.1235 83.4409)" fill="#231F20" font-family="'ArialMT'" font-size="11">FCP-4</text>
<text transform="matrix(1 0 0 1 175.8203 76.8408)"><tspan x="0" y="0" fill="#231F20" font-family="'ArialMT'" font-size="11">RFC</tspan><tspan x="-0.932" y="13.2" fill="#231F20" font-family="'ArialMT'" font-size="11">4338</tspan></text>
<text transform="matrix(1 0 0 1 219.1255 76.8408)"><tspan x="0" y="0" fill="#231F20" font-family="'ArialMT'" font-size="11">FC-SB-</tspan><tspan x="15.272" y="13.2" fill="#231F20" font-family="'ArialMT'" font-size="11">5</tspan></text>
<text transform="matrix(1 0 0 1 270.4561 83.4409)" fill="#231F20" font-family="'ArialMT'" font-size="11">Others</text>
<text transform="matrix(1 0 0 1 139.4658 136.2007)" fill="#231F20" font-family="'Arial-BoldMT'" font-size="11">Common Services</text>
<text transform="matrix(1 0 0 1 115.4561 178.5342)" fill="#231F20" font-family="'Arial-BoldMT'" font-size="11">Signaling Protocol - Virtual</text>
<text transform="matrix(1 0 0 1 108.7896 199.8677)" fill="#231F20" font-family="'Arial-BoldMT'" font-size="11">Signaling Protocol - Multiplexer</text>
<text transform="matrix(1 0 0 1 114.1226 222.2007)" fill="#231F20" font-family="'Arial-BoldMT'" font-size="11">Signaling Protocol - Physical</text>
<text transform="matrix(1 0 0 1 130.7905 264.2007)" fill="#231F20" font-family="'Arial-BoldMT'" font-size="11">Transmission Protocol</text>
<text transform="matrix(1 0 0 1 117.457 316.2012)" fill="#231F20" font-family="'Arial-BoldMT'" font-size="11">Transmitters and Receivers</text>
<text transform="matrix(1 0 0 1 173.79 368.5342)" fill="#231F20" font-family="'Arial-BoldMT'" font-size="11">Media</text>
<text transform="matrix(1 0 0 1 23.1196 31.5342)" fill="#231F20" font-family="'ArialMT'" font-size="10">ULPs</text>
<text transform="matrix(1 0 0 1 24.2354 76.2012)"><tspan x="0" y="0" fill="#231F20" font-family="'ArialMT'" font-size="10">FC-4</tspan><tspan x="-8.069" y="12" fill="#231F20" font-family="'ArialMT'" font-size="10">Mapping</tspan></text>
<text transform="matrix(1 0 0 1 24.2358 135.2007)" fill="#231F20" font-family="'ArialMT'" font-size="10">FC-3</text>
<text transform="matrix(1 0 0 1 24.2354 188.5342)"><tspan x="0" y="0" fill="#231F20" font-family="'ArialMT'" font-size="10">FC-2</tspan><tspan x="-7.231" y="12" fill="#231F20" font-family="'ArialMT'" font-size="10">Protocol</tspan></text>
<text transform="matrix(1 0 0 1 24.2354 255.8677)"><tspan x="0" y="0" fill="#231F20" font-family="'ArialMT'" font-size="10">FC-1</tspan><tspan x="-4.734" y="12" fill="#231F20" font-family="'ArialMT'" font-size="10">Coding</tspan></text>
<text transform="matrix(1 0 0 1 24.2354 335.5352)"><tspan x="0" y="0" fill="#231F20" font-family="'ArialMT'" font-size="10">FC-0</tspan><tspan x="-7.507" y="12" fill="#231F20" font-family="'ArialMT'" font-size="10">Physical</tspan></text>
<text transform="matrix(1 0 0 1 322.292 200.5342)" fill="#231F20" font-family="'ArialMT'" font-size="10">FC-FS-4</text>
<text transform="matrix(1 0 0 1 326.2378 341.5342)" fill="#231F20" font-family="'ArialMT'" font-size="10">FC-PI-x</text>
<rect x="392.127" y="111.864" fill="#CCCCFF" stroke="#3333CC" stroke-width="1.5" stroke-miterlimit="10" width="147.06" height="41.333"/>
<text transform="matrix(1 0 0 1 404.041 130.2012)"><tspan x="0" y="0" fill="#231F20" font-family="'Arial-BoldMT'" font-size="11">Extended Link Services</tspan><tspan x="25.689" y="13.2" fill="#231F20" font-family="'Arial-BoldMT'" font-size="11">(See FC-LS-3)</tspan></text>
<g>
	<g>
		<line fill="none" stroke="#666666" stroke-width="2" stroke-miterlimit="10" x1="10.5" y1="291.5" x2="47.5" y2="291.5"/>
		<g>
			<polygon fill="#666666" points="45.5,294.631 57.696,291.365 45.5,288.094 			"/>
		</g>
	</g>
</g>
<g>
	<g>
		<line fill="none" stroke="#666666" stroke-width="2" stroke-miterlimit="10" x1="10.5" y1="384.5" x2="47.5" y2="384.5"/>
		<g>
			<polygon fill="#666666" points="45.5,387.631 57.696,384.365 45.5,381.094 			"/>
		</g>
	</g>
</g>
<g>
	<g>
		<line fill="none" stroke="#666666" stroke-width="2" stroke-miterlimit="10" x1="328.5" y1="291.5" x2="377.5" y2="291.5"/>
		<g>
			<polygon fill="#666666" points="330.5,294.631 318.304,291.365 330.5,288.094 			"/>
		</g>
	</g>
</g>
<g>
	<g>
		<line fill="none" stroke="#666666" stroke-width="2" stroke-miterlimit="10" x1="328.5" y1="384.5" x2="377.5" y2="384.5"/>
		<g>
			<polygon fill="#666666" points="330.5,387.631 318.304,384.365 330.5,381.094 			"/>
		</g>
	</g>
</g>
<g>
	<g>
		<line fill="none" stroke="#666666" stroke-width="2" stroke-miterlimit="10" x1="328.5" y1="280.5" x2="377.5" y2="280.5"/>
		<g>
			<polygon fill="#666666" points="330.5,283.631 318.304,280.365 330.5,277.094 			"/>
		</g>
	</g>
</g>
<g>
	<g>
		<line fill="none" stroke="#666666" stroke-width="2" stroke-miterlimit="10" x1="328.5" y1="111.5" x2="377.5" y2="111.5"/>
		<g>
			<polygon fill="#666666" points="330.5,114.631 318.304,111.365 330.5,108.094 			"/>
		</g>
	</g>
</g>
<line fill="none" stroke="#666666" stroke-width="2" stroke-miterlimit="10" x1="377.5" y1="110.5" x2="377.5" y2="281.5"/>
<line fill="none" stroke="#666666" stroke-width="2" stroke-miterlimit="10" x1="377.5" y1="290.5" x2="377.5" y2="385.5"/>
<line fill="none" stroke="#3333CC" stroke-width="2" stroke-miterlimit="10" x1="307.5" y1="131.5" x2="392.5" y2="131.5"/>
</svg>
