<?xml version="1.0" encoding="UTF-8" standalone="no"?>
<!-- Generator: Adobe Illustrator 13.0.0, SVG Export Plug-In . SVG Version: 6.00 Build 14576)  -->

<svg
   xmlns:dc="http://purl.org/dc/elements/1.1/"
   xmlns:cc="http://creativecommons.org/ns#"
   xmlns:rdf="http://www.w3.org/1999/02/22-rdf-syntax-ns#"
   xmlns:svg="http://www.w3.org/2000/svg"
   xmlns="http://www.w3.org/2000/svg"
   xmlns:sodipodi="http://sodipodi.sourceforge.net/DTD/sodipodi-0.dtd"
   xmlns:inkscape="http://www.inkscape.org/namespaces/inkscape"
   version="1.0"
   id="Layer_1"
   x="0px"
   y="0px"
   width="720"
   height="279.61719"
   viewBox="0 0 720 279.61719"
   enable-background="new 0 0 800 600"
   xml:space="preserve"
   inkscape:version="0.91 r13725"
   sodipodi:docname="nor_flash.svg"><metadata
     id="metadata4317"><rdf:RDF><cc:Work
         rdf:about=""><dc:format>image/svg+xml</dc:format><dc:type
           rdf:resource="http://purl.org/dc/dcmitype/StillImage" /><dc:title></dc:title></cc:Work></rdf:RDF></metadata><defs
     id="defs4315" /><sodipodi:namedview
     pagecolor="#ffffff"
     bordercolor="#666666"
     borderopacity="1"
     objecttolerance="10"
     gridtolerance="10"
     guidetolerance="10"
     inkscape:pageopacity="0"
     inkscape:pageshadow="2"
     inkscape:window-width="640"
     inkscape:window-height="480"
     id="namedview4313"
     showgrid="false"
     fit-margin-top="0"
     fit-margin-left="0"
     fit-margin-right="0"
     fit-margin-bottom="0"
     inkscape:zoom="0.3875"
     inkscape:cx="360"
     inkscape:cy="156.5"
     inkscape:window-x="0"
     inkscape:window-y="0"
     inkscape:window-maximized="0"
     inkscape:current-layer="Layer_1" /><rect
     x="8"
     y="233.11719"
     width="704"
     height="46"
     id="rect4083"
     style="fill:#662d91;stroke:#000000" /><path
     d="m 128.001,233.11719 0,8 c 0,0 0,8 16,8 15.999,0 31.999,0 31.999,0 0,0 16,0 16,-8 0,-8 0,-8 0,-8"
     id="path4085"
     inkscape:connector-curvature="0"
     style="fill:#00ffff;stroke:#000000" /><line
     x1="0"
     y1="17.117188"
     x2="720"
     y2="17.117188"
     id="line4087"
     style="fill:none;stroke:#000000;stroke-width:2" /><line
     x1="640"
     y1="19.117188"
     x2="640"
     y2="125.11719"
     id="line4089"
     style="fill:none;stroke:#000000;stroke-width:2" /><line
     x1="640"
     y1="125.11719"
     x2="604"
     y2="125.11719"
     id="line4091"
     style="fill:none;stroke:#000000;stroke-width:2" /><line
     x1="604"
     y1="125.11719"
     x2="604"
     y2="97.117188"
     id="line4093"
     style="fill:none;stroke:#000000;stroke-width:2" /><line
     x1="572"
     y1="97.117188"
     x2="604"
     y2="97.117188"
     id="line4095"
     style="fill:none;stroke:#000000;stroke-width:2" /><line
     x1="572"
     y1="97.117188"
     x2="572"
     y2="125.11719"
     id="line4097"
     style="fill:none;stroke:#000000;stroke-width:2" /><line
     x1="510"
     y1="125.11719"
     x2="510"
     y2="97.117188"
     id="line4099"
     style="fill:none;stroke:#000000;stroke-width:2" /><line
     x1="478"
     y1="97.117188"
     x2="510"
     y2="97.117188"
     id="line4101"
     style="fill:none;stroke:#000000;stroke-width:2" /><line
     x1="478"
     y1="97.117188"
     x2="478"
     y2="125.11719"
     id="line4103"
     style="fill:none;stroke:#000000;stroke-width:2" /><line
     x1="414"
     y1="125.11719"
     x2="414"
     y2="97.117188"
     id="line4105"
     style="fill:none;stroke:#000000;stroke-width:2" /><line
     x1="382"
     y1="97.117188"
     x2="414"
     y2="97.117188"
     id="line4107"
     style="fill:none;stroke:#000000;stroke-width:2" /><line
     x1="382"
     y1="97.117188"
     x2="382"
     y2="125.11719"
     id="line4109"
     style="fill:none;stroke:#000000;stroke-width:2" /><line
     x1="320"
     y1="125.11719"
     x2="320"
     y2="97.117188"
     id="line4111"
     style="fill:none;stroke:#000000;stroke-width:2" /><line
     x1="288"
     y1="97.117188"
     x2="320"
     y2="97.117188"
     id="line4113"
     style="fill:none;stroke:#000000;stroke-width:2" /><line
     x1="288"
     y1="97.117188"
     x2="288"
     y2="125.11719"
     id="line4115"
     style="fill:none;stroke:#000000;stroke-width:2" /><line
     x1="224"
     y1="125.11719"
     x2="224"
     y2="97.117188"
     id="line4117"
     style="fill:none;stroke:#000000;stroke-width:2" /><line
     x1="192"
     y1="97.117188"
     x2="224"
     y2="97.117188"
     id="line4119"
     style="fill:none;stroke:#000000;stroke-width:2" /><line
     x1="192"
     y1="97.117188"
     x2="192"
     y2="125.11719"
     id="line4121"
     style="fill:none;stroke:#000000;stroke-width:2" /><line
     x1="192"
     y1="125.11719"
     x2="130"
     y2="125.11719"
     id="line4123"
     style="fill:none;stroke:#000000;stroke-width:2" /><line
     x1="130"
     y1="125.11719"
     x2="130"
     y2="97.117188"
     id="line4125"
     style="fill:none;stroke:#000000;stroke-width:2" /><line
     x1="98"
     y1="97.117188"
     x2="130"
     y2="97.117188"
     id="line4127"
     style="fill:none;stroke:#000000;stroke-width:2" /><line
     x1="98"
     y1="97.117188"
     x2="98"
     y2="125.11719"
     id="line4129"
     style="fill:none;stroke:#000000;stroke-width:2" /><line
     x1="98"
     y1="125.11719"
     x2="64"
     y2="125.11719"
     id="line4131"
     style="fill:none;stroke:#000000;stroke-width:2" /><line
     x1="98"
     y1="91.117188"
     x2="130"
     y2="91.117188"
     id="line4133"
     style="fill:none;stroke:#000000;stroke-width:2" /><line
     x1="98"
     y1="87.117188"
     x2="130"
     y2="87.117188"
     id="line4135"
     style="fill:none;stroke:#000000;stroke-width:2" /><line
     x1="114"
     y1="73.117188"
     x2="114"
     y2="87.117188"
     id="line4137"
     style="fill:none;stroke:#000000;stroke-width:2" /><line
     x1="192"
     y1="91.117188"
     x2="224"
     y2="91.117188"
     id="line4139"
     style="fill:none;stroke:#000000;stroke-width:2" /><line
     x1="192"
     y1="87.117188"
     x2="224"
     y2="87.117188"
     id="line4141"
     style="fill:none;stroke:#000000;stroke-width:2" /><line
     x1="208"
     y1="73.117188"
     x2="208"
     y2="87.117188"
     id="line4143"
     style="fill:none;stroke:#000000;stroke-width:2" /><line
     x1="288"
     y1="91.117188"
     x2="320"
     y2="91.117188"
     id="line4145"
     style="fill:none;stroke:#000000;stroke-width:2" /><line
     x1="288"
     y1="87.117188"
     x2="320"
     y2="87.117188"
     id="line4147"
     style="fill:none;stroke:#000000;stroke-width:2" /><line
     x1="304"
     y1="73.117188"
     x2="304"
     y2="87.117188"
     id="line4149"
     style="fill:none;stroke:#000000;stroke-width:2" /><line
     x1="382"
     y1="91.117188"
     x2="414"
     y2="91.117188"
     id="line4151"
     style="fill:none;stroke:#000000;stroke-width:2" /><line
     x1="382"
     y1="87.117188"
     x2="414"
     y2="87.117188"
     id="line4153"
     style="fill:none;stroke:#000000;stroke-width:2" /><line
     x1="398"
     y1="73.117188"
     x2="398"
     y2="87.117188"
     id="line4155"
     style="fill:none;stroke:#000000;stroke-width:2" /><line
     x1="478"
     y1="91.117188"
     x2="510"
     y2="91.117188"
     id="line4157"
     style="fill:none;stroke:#000000;stroke-width:2" /><line
     x1="478"
     y1="87.117188"
     x2="510"
     y2="87.117188"
     id="line4159"
     style="fill:none;stroke:#000000;stroke-width:2" /><line
     x1="494"
     y1="73.117188"
     x2="494"
     y2="87.117188"
     id="line4161"
     style="fill:none;stroke:#000000;stroke-width:2" /><line
     x1="572"
     y1="91.117188"
     x2="604"
     y2="91.117188"
     id="line4163"
     style="fill:none;stroke:#000000;stroke-width:2" /><line
     x1="572"
     y1="87.117188"
     x2="604"
     y2="87.117188"
     id="line4165"
     style="fill:none;stroke:#000000;stroke-width:2" /><line
     x1="588"
     y1="73.117188"
     x2="588"
     y2="87.117188"
     id="line4167"
     style="fill:none;stroke:#000000;stroke-width:2" /><g
     id="g4169"
     transform="translate(-40,-176.88281)"><line
       x1="202"
       y1="322"
       x2="202"
       y2="302"
       id="line4171"
       style="fill:none;stroke:#000000;stroke-width:2" /><line
       x1="194"
       y1="322"
       x2="210"
       y2="322"
       id="line4173"
       style="fill:none;stroke:#000000;stroke-width:2" /><line
       x1="196"
       y1="326"
       x2="208"
       y2="326"
       id="line4175"
       style="fill:none;stroke:#000000;stroke-width:2" /><line
       x1="200"
       y1="330"
       x2="204"
       y2="330"
       id="line4177"
       style="fill:none;stroke:#000000;stroke-width:2" /></g><text
     id="text4179"
     x="99.665001"
     y="53.117188"><tspan
       x="99.665001"
       y="53.117188"
       font-size="12"
       id="tspan4181"
       style="font-size:12px;font-family:ArialMT">Word</tspan><tspan
       x="97.652"
       y="67.517189"
       font-size="12"
       id="tspan4183"
       style="font-size:12px;font-family:ArialMT">Line 0</tspan></text>
<text
     id="text4185"
     x="193.66499"
     y="53.117188"><tspan
       x="193.66499"
       y="53.117188"
       font-size="12"
       id="tspan4187"
       style="font-size:12px;font-family:ArialMT">Word</tspan><tspan
       x="191.65199"
       y="67.517189"
       font-size="12"
       id="tspan4189"
       style="font-size:12px;font-family:ArialMT">Line 1</tspan></text>
<text
     id="text4191"
     x="287.66501"
     y="53.117188"><tspan
       x="287.66501"
       y="53.117188"
       font-size="12"
       id="tspan4193"
       style="font-size:12px;font-family:ArialMT">Word</tspan><tspan
       x="285.65201"
       y="67.517189"
       font-size="12"
       id="tspan4195"
       style="font-size:12px;font-family:ArialMT">Line 2</tspan></text>
<text
     id="text4197"
     x="381.66501"
     y="53.117188"><tspan
       x="381.66501"
       y="53.117188"
       font-size="12"
       id="tspan4199"
       style="font-size:12px;font-family:ArialMT">Word</tspan><tspan
       x="379.65201"
       y="67.517189"
       font-size="12"
       id="tspan4201"
       style="font-size:12px;font-family:ArialMT">Line 3</tspan></text>
<text
     id="text4203"
     x="477.66501"
     y="53.117188"><tspan
       x="477.66501"
       y="53.117188"
       font-size="12"
       id="tspan4205"
       style="font-size:12px;font-family:ArialMT">Word</tspan><tspan
       x="475.65201"
       y="67.517189"
       font-size="12"
       id="tspan4207"
       style="font-size:12px;font-family:ArialMT">Line 4</tspan></text>
<text
     id="text4209"
     x="571.66498"
     y="53.117188"><tspan
       x="571.66498"
       y="53.117188"
       font-size="12"
       id="tspan4211"
       style="font-size:12px;font-family:ArialMT">Word</tspan><tspan
       x="569.65198"
       y="67.517189"
       font-size="12"
       id="tspan4213"
       style="font-size:12px;font-family:ArialMT">Line 5</tspan></text>
<text
     font-size="12"
     id="text4215"
     style="font-size:12px;font-family:ArialMT"
     x="649.9873"
     y="9.1171875">Bit Line</text>
<path
     d="m 36,233.11719 0,8 c 0,0 0,8 15,8 15,0 30,0 30,0 0,0 15,0 15,-8 0,-8 0,-8 0,-8"
     id="path4217"
     inkscape:connector-curvature="0"
     style="fill:#00ffff;stroke:#000000" /><rect
     x="188"
     y="223.11719"
     width="40"
     height="8"
     id="rect4219"
     style="fill:#b3b3b3;stroke:#000000" /><rect
     x="188"
     y="213.11719"
     width="40"
     height="8"
     id="rect4221"
     style="fill:#b3b3b3;stroke:#000000" /><rect
     x="284"
     y="223.11719"
     width="40"
     height="8"
     id="rect4223"
     style="fill:#b3b3b3;stroke:#000000" /><rect
     x="284"
     y="213.11719"
     width="40"
     height="8"
     id="rect4225"
     style="fill:#b3b3b3;stroke:#000000" /><rect
     x="380"
     y="223.11719"
     width="40"
     height="8"
     id="rect4227"
     style="fill:#b3b3b3;stroke:#000000" /><rect
     x="380"
     y="213.11719"
     width="40"
     height="8"
     id="rect4229"
     style="fill:#b3b3b3;stroke:#000000" /><rect
     x="476"
     y="223.11719"
     width="40"
     height="8"
     id="rect4231"
     style="fill:#b3b3b3;stroke:#000000" /><rect
     x="476"
     y="213.11719"
     width="40"
     height="8"
     id="rect4233"
     style="fill:#b3b3b3;stroke:#000000" /><rect
     x="572"
     y="223.11719"
     width="40"
     height="8"
     id="rect4235"
     style="fill:#b3b3b3;stroke:#000000" /><rect
     x="572"
     y="213.11719"
     width="40"
     height="8"
     id="rect4237"
     style="fill:#b3b3b3;stroke:#000000" /><rect
     x="56"
     y="201.11719"
     width="16"
     height="32"
     id="rect4239"
     style="fill:#f7931e;stroke:#000000" /><rect
     x="632"
     y="201.11719"
     width="16"
     height="32"
     id="rect4241"
     style="fill:#f7931e;stroke:#000000" /><text
     font-size="12"
     id="text4243"
     style="font-size:12px;font-family:ArialMT"
     x="59.667"
     y="245.11719">N</text>
<text
     font-size="12"
     id="text4245"
     style="font-size:12px;font-family:ArialMT"
     x="139"
     y="245.11719">N, GND</text>
<path
     d="m 224.001,233.11719 0,8 c 0,0 0,8 16,8 16,0 32,0 32,0 0,0 16,0 16,-8 0,-8 0,-8 0,-8"
     id="path4247"
     inkscape:connector-curvature="0"
     style="fill:#00ffff;stroke:#000000" /><text
     font-size="12"
     id="text4249"
     style="font-size:12px;font-family:ArialMT"
     x="251.66701"
     y="245.11719">N</text>
<text
     font-size="12"
     id="text4251"
     style="font-size:12px;font-family:ArialMT"
     x="353.9985"
     y="267.11719">P</text>
<rect
     x="92"
     y="223.11719"
     width="40"
     height="8"
     id="rect4253"
     style="fill:#b3b3b3;stroke:#000000" /><rect
     x="92"
     y="213.11719"
     width="40"
     height="8"
     id="rect4255"
     style="fill:#b3b3b3;stroke:#000000" /><rect
     x="248"
     y="201.11719"
     width="16"
     height="32"
     id="rect4257"
     style="fill:#f7931e;stroke:#000000" /><path
     d="m 320,233.11719 0,8 c 0,0 0,8 16,8 16,0 32,0 32,0 0,0 15.999,0 15.999,-8 0,-8 0,-8 0,-8"
     id="path4259"
     inkscape:connector-curvature="0"
     style="fill:#00ffff;stroke:#000000" /><text
     font-size="12"
     id="text4261"
     style="font-size:12px;font-family:ArialMT"
     x="330.9985"
     y="245.11719">N, GND</text>
<path
     d="m 416.002,233.11719 0,8 c 0,0 0,8 15.999,8 15.999,0 31.999,0 31.999,0 0,0 16,0 16,-8 0,-8 0,-8 0,-8"
     id="path4263"
     inkscape:connector-curvature="0"
     style="fill:#00ffff;stroke:#000000" /><text
     font-size="12"
     id="text4265"
     style="font-size:12px;font-family:ArialMT"
     x="443.66699"
     y="245.11719">N</text>
<rect
     x="440"
     y="201.11719"
     width="16"
     height="32"
     id="rect4267"
     style="fill:#f7931e;stroke:#000000" /><path
     d="m 512,233.11719 0,8 c 0,0 0,8 15.999,8 15.999,0 31.999,0 31.999,0 0,0 16,0 16,-8 0,-8 0,-8 0,-8"
     id="path4269"
     inkscape:connector-curvature="0"
     style="fill:#00ffff;stroke:#000000" /><text
     font-size="12"
     id="text4271"
     style="font-size:12px;font-family:ArialMT"
     x="522.99799"
     y="245.11719">N, GND</text>
<path
     d="m 608,233.11719 0,8 c 0,0 0,8 15.999,8 15.999,0 31.999,0 31.999,0 0,0 16,0 16,-8 0,-8 0,-8 0,-8"
     id="path4273"
     inkscape:connector-curvature="0"
     style="fill:#00ffff;stroke:#000000" /><text
     font-size="12"
     id="text4275"
     style="font-size:12px;font-family:ArialMT"
     x="635.66498"
     y="245.11719">N</text>
<rect
     x="40"
     y="183.11719"
     width="624"
     height="18"
     id="rect4277"
     style="fill:#f7931e;stroke:#000000" /><line
     x1="64"
     y1="17.117188"
     x2="64"
     y2="125.11719"
     id="line4279"
     style="fill:none;stroke:#000000;stroke-width:2" /><line
     x1="224"
     y1="125.11719"
     x2="288"
     y2="125.11719"
     id="line4281"
     style="fill:none;stroke:#000000;stroke-width:2" /><line
     x1="256"
     y1="15.117188"
     x2="256"
     y2="125.11719"
     id="line4283"
     style="fill:none;stroke:#000000;stroke-width:2" /><line
     x1="382"
     y1="125.11719"
     x2="320"
     y2="125.11719"
     id="line4285"
     style="fill:none;stroke:#000000;stroke-width:2" /><g
     id="g4287"
     transform="translate(-40,-176.88281)"><line
       x1="392"
       y1="322"
       x2="392"
       y2="302"
       id="line4289"
       style="fill:none;stroke:#000000;stroke-width:2" /><line
       x1="384"
       y1="322"
       x2="400"
       y2="322"
       id="line4291"
       style="fill:none;stroke:#000000;stroke-width:2" /><line
       x1="386"
       y1="326"
       x2="398"
       y2="326"
       id="line4293"
       style="fill:none;stroke:#000000;stroke-width:2" /><line
       x1="390"
       y1="330"
       x2="394"
       y2="330"
       id="line4295"
       style="fill:none;stroke:#000000;stroke-width:2" /></g><line
     x1="414"
     y1="125.11719"
     x2="478"
     y2="125.11719"
     id="line4297"
     style="fill:none;stroke:#000000;stroke-width:2" /><line
     x1="446"
     y1="15.117188"
     x2="446"
     y2="125.11719"
     id="line4299"
     style="fill:none;stroke:#000000;stroke-width:2" /><line
     x1="572"
     y1="125.11719"
     x2="510"
     y2="125.11719"
     id="line4301"
     style="fill:none;stroke:#000000;stroke-width:2" /><g
     id="g4303"
     transform="translate(-40,-176.88281)"><line
       x1="582"
       y1="322"
       x2="582"
       y2="302"
       id="line4305"
       style="fill:none;stroke:#000000;stroke-width:2" /><line
       x1="574"
       y1="322"
       x2="590"
       y2="322"
       id="line4307"
       style="fill:none;stroke:#000000;stroke-width:2" /><line
       x1="576"
       y1="326"
       x2="588"
       y2="326"
       id="line4309"
       style="fill:none;stroke:#000000;stroke-width:2" /><line
       x1="580"
       y1="330"
       x2="584"
       y2="330"
       id="line4311"
       style="fill:none;stroke:#000000;stroke-width:2" /></g></svg>